<svg xmlns="http://www.w3.org/2000/svg" width="96.59" height="33.594" viewBox="0 0 96.59 33.594">
    <g transform="translate(-918.41 -44)">
        <path d="M6.973.164A1,1,0,0,0,8.027-.926V-15.012h4.5a.933.933,0,0,0,1.008-.949.933.933,0,0,0-1.008-.949H1.418a.933.933,0,0,0-1.008.949.933.933,0,0,0,1.008.949h4.5V-.926A1,1,0,0,0,6.973.164Zm9.422.047a1.011,1.011,0,0,0,1.02-1.09V-7.1A3.166,3.166,0,0,1,20.7-10.594c1.91,0,2.883,1.16,2.883,3.094V-.879A1.011,1.011,0,0,0,24.6.211a1.011,1.011,0,0,0,1.02-1.09v-7c0-2.719-1.617-4.523-4.289-4.523a4.035,4.035,0,0,0-3.867,2.156h-.047v-5.812a.985.985,0,0,0-1.02-1.066.991.991,0,0,0-1.02,1.066V-.879A1.011,1.011,0,0,0,16.395.211Zm16.863,0c3.363,0,5.637-2.426,5.637-6.3s-2.273-6.3-5.637-6.3-5.648,2.414-5.648,6.3S29.883.211,33.258.211Zm0-1.793c-2.156,0-3.574-1.641-3.574-4.512s1.418-4.512,3.574-4.512S36.82-8.965,36.82-6.094,35.414-1.582,33.258-1.582ZM45.105.211A4.007,4.007,0,0,0,48.973-1.98h.047V-.82A.964.964,0,0,0,49.992.211.955.955,0,0,0,50.953-.82V-11.309a1.011,1.011,0,0,0-1.02-1.09,1.011,1.011,0,0,0-1.02,1.09v6.281c0,2.074-1.2,3.434-3.176,3.434-1.887,0-2.812-1.066-2.812-3.047v-6.668a1.011,1.011,0,0,0-1.02-1.09,1.011,1.011,0,0,0-1.02,1.09v7.031C40.887-1.512,42.445.211,45.105.211ZM58.512,4.594c3.469.035,5.625-1.934,5.625-4.84v-11.1a.994.994,0,0,0-1.02-1.055.994.994,0,0,0-1.02,1.055v1.16h-.035A4.352,4.352,0,0,0,58.184-12.4c-3.152,0-5.191,2.438-5.191,6.258,0,3.785,2.039,6.234,5.145,6.234A4.429,4.429,0,0,0,62.051-2.1H62.1V-.176c0,1.816-1.324,3.07-3.5,3.035a4,4,0,0,1-3.141-1.617A1.041,1.041,0,0,0,54.6.773a.859.859,0,0,0-.914.879,1.35,1.35,0,0,0,.234.762A5.353,5.353,0,0,0,58.512,4.594ZM58.547-1.7c-2.1,0-3.469-1.711-3.469-4.441s1.371-4.465,3.469-4.465c2.121,0,3.551,1.781,3.551,4.465S60.668-1.7,58.547-1.7ZM67.43-2.812c0,1.945.984,2.906,2.953,2.906h.129C71.648.094,72-.234,72-.855c0-.48-.3-.75-.973-.8l-.176-.012c-1.02-.07-1.383-.562-1.383-1.594v-7.254h1.57a.8.8,0,0,0,.914-.844c0-.527-.328-.832-.914-.832h-1.57v-2.086a1.011,1.011,0,0,0-1.02-1.09,1.011,1.011,0,0,0-1.02,1.09v2.086H66.41c-.586,0-.914.3-.914.832a.8.8,0,0,0,.914.844h1.02ZM78.234.211c2.895,0,4.852-1.465,4.852-3.645,0-1.793-.937-2.684-3.48-3.3l-1.816-.445C76.453-7.512,75.8-8.1,75.8-8.941c0-1.043,1.02-1.781,2.484-1.781a2.562,2.562,0,0,1,2.555,1.465.908.908,0,0,0,.9.551.744.744,0,0,0,.8-.8,1.52,1.52,0,0,0-.035-.3c-.316-1.465-2.1-2.59-4.1-2.59-2.754,0-4.617,1.441-4.617,3.563,0,1.711,1.137,2.824,3.492,3.41l1.863.469c1.371.34,1.875.809,1.875,1.688,0,1.137-1.055,1.816-2.613,1.816A2.835,2.835,0,0,1,75.5-3a1,1,0,0,0-.891-.609.835.835,0,0,0-.926.844,1.246,1.246,0,0,0,.094.48C74.367-.762,76.066.211,78.234.211Z" transform="translate(918 73)" />
        <g transform="translate(1002 54)" fill="#fff" stroke="#000" stroke-width="1">
            <circle cx="2.5" cy="2.5" r="2.5" stroke="none" />
            <circle cx="2.5" cy="2.5" r="2" fill="none" />
        </g>
        <g transform="translate(1005 44)" fill="#fff" stroke="#000" stroke-width="1">
            <circle cx="5" cy="5" r="5" stroke="none" />
            <circle cx="5" cy="5" r="4.5" fill="none" />
        </g>
    </g>
</svg>